# AST/ASF file generated using VICON BodyLanguage
# -----------------------------------------------
:version 1.10
:name VICON
:units
  mass 1.0
  length 0.45
  angle deg
:documentation
   .ast/.asf automatically generated from VICON data using
   VICON BodyBuilder and BodyLanguage model FoxedUp or BRILLIANT.MOD
:root
   order TX TY TZ RX RY RZ
   axis XYZ
   position 0 0 0  
   orientation 0 0 0 
:bonedata
  begin
     id 1 
     name lhipjoint
     direction 0.543289 -0.788407 0.288535 
     length 2.57127 
     axis 0 0 0  XYZ
  end
  begin
     id 2 
     name lfemur
     direction 0.34202 -0.939693 0  
     length 8.47298  
     axis 0 0 20  XYZ
    dof rx ry rz
    limits (-160.0 20.0)
           (-70.0 70.0)
           (-60.0 70.0)
  end
  begin
     id 3 
     name ltibia
     direction 0.34202 -0.939693 0   
     length 8.13367   
     axis 0 0 20   XYZ
    dof rx
    limits (-10.0 170.0)
  end
  begin
     id 4 
     name lfoot
     direction 0.114037 -0.313314 0.942778   
     length 2.67113   
     axis -90 7.62852e-016 20   XYZ
    dof rx rz
    limits (-45.0 90.0)
           (-70.0 20.0)
  end
  begin
     id 5 
     name ltoes
     direction 1.536e-011 -4.21847e-011 1   
     length 1.32217   
     axis -90 7.62852e-016 20   XYZ
    dof rx
    limits (-90.0 20.0)
  end
  begin
     id 6 
     name rhipjoint
     direction -0.571293 -0.770752 0.282074   
     length 2.63017  
     axis 0 0 0  XYZ 
  end
  begin
     id 7 
     name rfemur
     direction -0.34202 -0.939693 0   
     length 8.60885   
     axis 0 0 -20   XYZ
    dof rx ry rz
    limits (-160.0 20.0)
           (-70.0 70.0)
           (-70.0 60.0)
  end
  begin
     id 8 
     name rtibia
     direction -0.34202 -0.939693 0   
     length 8.07673   
     axis 0 0 -20   XYZ
    dof rx
    limits (-10.0 170.0)
 end
 begin
     id 9 
     name rfoot
     direction -0.121336 -0.333368 0.934956   
     length 2.81602  
     axis -90 -7.62852e-016 -20   XYZ
    dof rx rz
    limits (-45.0 90.0)
           (-20.0 70.0)
  end
  begin
     id 10 
     name rtoes
     direction -1.53491e-011 -4.21808e-011 1   
     length 1.38905   
     axis -90 -7.62852e-016 -20   XYZ
    dof rx
    limits (-90.0 20.0)
  end
  begin
     id 11 
     name lowerback
     direction 0.0136776 0.999869 -0.00861835   
     length 2.14087   
     axis 0 0 0   XYZ
    dof rx ry rz
    limits (-20.0 45.0)
           (-30.0 30.0)
           (-30.0 30.0)
  end
  begin
     id 12 
     name upperback
     direction -0.00789158 0.999804 0.0181308   
     length 2.14151   
     axis 0 0 0   XYZ
    dof rx ry rz
    limits (-20.0 45.0)
           (-30.0 30.0)
           (-30.0 30.0)
  end
  begin
     id 13 
     name thorax
     direction -0.0135231 0.999666 0.0220247   
     length 2.13644   
     axis 0 0 0   XYZ
    dof rx ry rz
    limits (-20.0 45.0)
           (-30.0 30.0)
           (-30.0 30.0)
  end
  begin
     id 14 
     name lowerneck
     direction -0.0392259 0.997317 0.0618018   
     length 1.65045   
     axis 0 0 0   XYZ
    dof rx ry rz
    limits (-20.0 45.0)
           (-30.0 30.0)
           (-30.0 30.0)
  end
  begin
     id 15 
     name upperneck
     direction 0.0765547 0.994276 -0.0745319   
     length 1.66045   
     axis 0 0 0   XYZ
    dof rx ry rz
    limits (-20.0 45.0)
           (-30.0 30.0)
           (-30.0 30.0)
  end
  begin
     id 16
     name head
     direction 0.0241564 0.999031 -0.036785  
     length 1.66594  
     axis 0 0 0   XYZ
    dof rx ry rz
    limits (-20.0 45.0)
           (-30.0 30.0)
           (-30.0 30.0)
  end
  begin
     id 17 
     name lclavicle
     direction 0.967398 0.249018 0.0461573  
     length 3.75176  
     axis 0 0 0   XYZ
    dof ry rz
    limits (-20.0 10.0)
           (0.0 20.0)
  end
  begin
     id 18 
     name lhumerus
     direction 1 -4.48963e-011 -3.05005e-027   
     length 5.93342   
     axis 180 -30 -90   XYZ
    dof rx ry rz
    limits (-60.0 90.0)
           (-90.0 90.0)
           (-90.0 90.0)
  end
  begin
     id 19
     name lradius
     direction 1 -4.48957e-011 1.07006e-026   
     length 3.94763   
     axis 180 -30 -90   XYZ
    dof rx
    limits (-10.0 170.0)
  end
  begin
     id 20
     name lwrist
     direction 1 -4.48978e-011 1.92422e-026   
     length 1.97382   
     axis -1.18182e-014 90 90   XYZ
    dof ry
    limits (-180.0 0.0)
 end
  begin
     id 21 
     name lhand
     direction 1 -4.48931e-011 3.84844e-026   
     length 0.560187   
     axis -2.45563e-014 90 90   XYZ
    dof rx rz
    limits (-90.0 90.0)
           (-45.0 45.0)
  end
  begin
     id 22 
     name lfingers
     direction 1 -4.48952e-011 7.69687e-026   
     length 0.451637   
     axis -4.91126e-014 90 90   XYZ
    dof rx
    limits (0.0 90.0)
  end
  begin
     id 23
     name lthumb
     direction 0.707107 -6.34901e-011 0.707107   
     length 0.648463   
     axis -90 45 2.85299e-015   XYZ
    dof rx rz
    limits (-45.0 45.0)
           (-45.0 45.0)
  end
  begin
     id 24 
     name rclavicle
     direction -0.965946 0.258716 0.00371831   
     length 3.63667  
     axis 0 0 0   XYZ 
    dof ry rz
    limits (-10.0 20.0)
           (-20.0 0.0)
  end
  begin
     id 25 
     name rhumerus
     direction -1 -4.48966e-011 -1.78361e-028  
     length 6.28647   
     axis 180 30 90   XYZ
    dof rx ry rz
    limits (-90.0 60.0)
           (-90.0 90.0)
           (-90.0 90.0)
  end
  begin
     id 26 
     name rradius
     direction -1 -4.48961e-011 1.05248e-026   
     length 3.81645   
     axis 180 30 90   XYZ
    dof rx
    limits (-10.0 170.0)
  end
  begin
     id 27 
     name rwrist
     direction -1 -4.48979e-011 1.92422e-026   
     length 1.90822   
     axis -1.18182e-014 -90 -90   XYZ
    dof ry
    limits (-180.0 0.0)
  end
  begin
     id 28
     name rhand
     direction -1 -4.48937e-011 3.84844e-026   
     length 0.646185   
     axis -2.45563e-014 -90 -90   XYZ
    dof rx rz
    limits (-90.0 90.0)
           (-45.0 45.0)
  end
  begin
     id 29
     name rfingers
     direction -1 -4.48953e-011 7.69687e-026   
     length 0.520971   
     axis -4.91126e-014 -90 -90   XYZ
    dof rx
    limits (0.0 90.0)
  end
  begin
     id 30
     name rthumb
     direction -0.707107 -6.3494e-011 0.707107   
     length 0.748013   
     axis -90 -45 -2.85299e-015   XYZ
    dof rx rz
    limits (-45.0 45.0)
           (-45.0 45.0)
  end
:hierarchy
  begin
    root lhipjoint rhipjoint lowerback
    lhipjoint lfemur
    lfemur ltibia
    ltibia lfoot
    lfoot ltoes
    rhipjoint rfemur
    rfemur rtibia
    rtibia rfoot
    rfoot rtoes
    lowerback upperback
    upperback thorax
    thorax lowerneck lclavicle rclavicle
    lowerneck upperneck
    upperneck head
    lclavicle lhumerus
    lhumerus lradius
    lradius lwrist
    lwrist lhand lthumb
    lhand lfingers
    rclavicle rhumerus
    rhumerus rradius
    rradius rwrist
    rwrist rhand rthumb
    rhand rfingers
  end

#!OML:ASF H:\HAZMAT1\Patient Classification 1\Patient 3\Session 1\dancer.ASF
:FULLY-SPECIFIED
:DEGREES
152
upperback -2.205130 -3.661310 -0.954271
rfoot -29.383801 -20.313299
lradius 18.378500
lthumb 12.928100 -305.864990
rradius 37.941299
lwrist -19.893101
rhand -18.249100 -17.147200
rhumerus -47.885700 -2.075120 275.809998
lowerneck -2.672190 -0.284462 1.021980
lhand -13.171300 -335.444000
ltibia 40.721199
head 1.213070 -0.187092 0.476428
rwrist 9.205290
lfingers 7.125020
rtoes 14.987400
lowerback -0.185365 -2.777360 4.470230
rfingers 7.125020
lclavicle -0.000000 0.000000
upperneck 2.488620 -0.471996 2.126970
rfemur -15.810200 17.172100 19.513399
thorax -2.512440 -1.925390 -3.400390
rclavicle -0.000000 0.000000
rtibia 36.033699
lfoot -26.027100 9.879910
lhumerus -39.408600 11.062200 69.863297
rthumb 8.029890 313.024994
root 1.801940 18.979500 10.064600 449.117004 91.876198 441.516998
ltoes 11.378700
lfemur -21.240101 -20.416201 -16.458799
153
upperback -2.148600 -3.192490 -0.750949
rfoot -28.280800 -10.852600
lradius 19.885300
lthumb 12.417500 -306.005005
rradius 35.075802
lwrist -18.698000
rhand -17.164801 -16.384899
rhumerus -48.224499 -2.831300 274.803009
lowerneck -2.263640 -0.836344 0.548641
lhand -13.700800 -335.615997
ltibia 40.481701
head 0.591798 -0.524752 1.296420
rwrist 10.444300
lfingers 7.125020
rtoes 8.644280
lowerback 0.268913 -2.430990 3.460060
rfingers 7.125020
lclavicle -0.000000 -0.000000
upperneck 0.616244 -1.156600 4.551960
rfemur -18.861099 8.387700 19.198099
thorax -2.593310 -1.668730 -2.621930
rclavicle -0.000000 -0.000000
rtibia 39.534000
lfoot -26.089701 9.220610
lhumerus -40.269100 11.943900 64.998703
rthumb 9.076300 313.829987
root 1.945700 18.986099 10.106000 455.716003 92.528198 446.990997
ltoes 11.405500
lfemur -22.009199 -20.059700 -15.202200
154
upperback -1.899040 -3.295650 -1.081180
rfoot -22.911200 -14.361600
lradius 25.295000
lthumb 10.162500 -306.252991
rradius 34.415901
lwrist -14.398700
rhand -17.432699 -16.112900
rhumerus -49.572300 -5.234020 275.223999
lowerneck -1.993380 -0.340205 1.269230
lhand -16.039101 -335.987000
ltibia 36.571400
head 0.485839 -0.180982 1.476770
rwrist 10.259300
lfingers 7.125020
rtoes 3.421320
lowerback -0.061930 -2.488580 2.998840
rfingers 7.125020
lclavicle -0.000000 -0.000000
upperneck 0.459997 -0.489449 5.489320
rfemur -22.542400 4.174510 11.271300
thorax -2.149850 -1.705230 -2.723120
rclavicle -0.000000 -0.000000
rtibia 43.204201
lfoot -26.193300 10.376700
lhumerus -37.466099 11.304200 66.334900
rthumb 8.817850 314.091003
root 2.283040 19.115999 10.658900 479.795990 93.432602 470.425995
ltoes 10.128300
lfemur -19.195101 -19.834900 -12.939700
155
upperback -2.042060 -3.349380 -0.698193
rfoot -6.978350 -29.858500
lradius 26.513000
lthumb 10.315000 -306.140015
rradius 32.963299
lwrist -12.128600
rhand -17.242800 -16.228300
rhumerus -50.998001 -9.946400 280.815002
lowerneck -2.502020 0.844578 2.718070
lhand -15.881000 -335.867004
ltibia 30.399000
head 0.571486 0.559827 0.395634
rwrist 12.872500
lfingers 7.125020
rtoes 15.816400
lowerback -1.407060 -2.504580 3.976870
rfingers 7.125020
lclavicle 0.000000 -0.000000
upperneck 0.537953 1.036160 2.724260
rfemur -21.042200 18.660500 -1.406330
thorax -1.582060 -1.735280 -2.935130
rclavicle 0.000000 -0.000000
rtibia 29.591499
lfoot -27.985100 15.516000
lhumerus -35.991600 6.327840 71.860199
rthumb 9.001070 313.984009
root 3.073770 19.140900 11.974700 509.839996 95.260597 500.348999
ltoes 6.119120
lfemur -12.186800 -22.228300 -10.404500
156
upperback -2.452800 -4.912980 -0.379064
rfoot -15.908600 -22.990499
lradius 24.261499
lthumb 9.723960 -305.990997
rradius 32.875401
lwrist -15.084000
rhand -16.476299 -16.731600
rhumerus -52.555199 -12.920500 282.708008
lowerneck -2.145410 2.934790 4.436610
lhand -16.493601 -335.747009
ltibia 28.683001
head 0.347874 1.897310 -1.411060
rwrist 12.720600
lfingers 7.125020
rtoes -8.490000
lowerback -2.684530 -3.637570 5.160530
rfingers 7.125020
lclavicle 0.000000 -0.000000
upperneck -0.472070 3.819330 -2.288250
rfemur -19.007299 19.743401 2.345300
thorax -1.495740 -2.534500 -3.315950
rclavicle 0.000000 -0.000000
rtibia 27.916800
lfoot -24.852600 16.623600
lhumerus -35.280800 8.105360 70.492500
rthumb 9.740690 313.514008
root 3.774420 18.952000 14.497200 517.487976 94.913101 507.118011
ltoes -9.286680
lfemur -8.970770 -23.981100 -3.516900
157
upperback -2.456650 -6.352320 -0.185401
rfoot -21.787800 -23.333401
lradius 27.984301
lthumb 12.891600 -308.808014
rradius 36.330700
lwrist -13.807700
rhand -15.678500 -17.011400
rhumerus -51.543800 -12.781100 286.199005
lowerneck -2.266820 5.292750 6.224140
lhand -13.209200 -338.389008
ltibia 30.776600
head 0.583430 3.456520 -3.839040
rwrist 12.800200
lfingers 7.125020
rtoes 0.538888
lowerback -3.668940 -4.644960 6.795210
rfingers 7.125020
lclavicle 0.000000 0.000000
upperneck -1.242390 6.964460 -8.772770
rfemur -19.285500 18.167999 9.376280
thorax -1.254940 -3.270210 -4.090650
rclavicle 0.000000 0.000000
rtibia 29.917000
lfoot -7.579660 20.638901
lhumerus -35.229099 3.282430 78.182503
rthumb 10.510300 313.270996
root 4.158520 19.219299 17.057199 545.546021 94.165398 533.807983
ltoes 1.600190
lfemur -12.326300 -21.481899 1.952830
158
upperback -1.576540 -6.377610 -0.929710
rfoot -22.995800 -21.033199
lradius 37.991100
lthumb 14.578800 -311.690002
rradius 39.522301
lwrist -11.831300
rhand -17.910601 -18.723900
rhumerus -49.622398 -11.070200 290.614990
lowerneck -2.096620 6.358610 7.038620
lhand -11.458400 -341.157990
ltibia 36.439400
head 0.660068 4.195300 -4.648290
rwrist 10.168400
lfingers 7.125020
rtoes 5.140770
lowerback -3.307800 -4.628510 7.655750
rfingers 7.125020
lclavicle -0.000000 -0.000000
upperneck -1.773550 8.412080 -12.233300
rfemur -17.488001 17.000500 12.407000
thorax -0.729365 -3.265340 -5.346240
rclavicle -0.000000 -0.000000
rtibia 30.061100
lfoot 5.538650 28.625999
lhumerus -35.723701 -5.791190 86.609802
rthumb 8.356650 311.460999
root 4.325610 19.368700 18.557301 570.968018 95.055199 560.267029
ltoes 23.636299
lfemur -16.150999 -18.761101 1.774260
159
upperback -1.273710 -6.215400 -0.918719
rfoot -24.907499 -22.290701
lradius 36.376701
lthumb 13.186900 -312.078003
rradius 36.481300
lwrist -12.284100
rhand -18.672300 -19.314699
rhumerus -48.927200 -13.371400 295.286987
lowerneck -2.181570 6.182030 7.037470
lhand -12.902800 -341.640991
ltibia 38.571201
head 0.993375 4.130090 -5.108730
rwrist 9.817930
lfingers 7.125020
rtoes 7.686360
lowerback -3.270390 -4.492750 7.948210
rfingers 7.125020
lclavicle -0.000000 -0.000000
upperneck -0.900139 8.307320 -13.809200
rfemur -16.029699 14.454200 14.657300
thorax -0.441528 -3.166050 -5.511270
rclavicle -0.000000 -0.000000
rtibia 30.617500
lfoot 10.103500 21.024599
lhumerus -35.727001 -4.899560 84.957802
rthumb 7.621410 310.842987
root 4.419210 19.361700 19.166800 633.197021 92.565399 622.802002
ltoes 23.445000
lfemur -22.929399 -13.366400 2.903950
160
upperback -1.881420 -5.356720 -0.378774
rfoot -28.287399 -26.620600
lradius 33.208401
lthumb 12.367600 -309.863007
rradius 29.343201
lwrist -13.515500
rhand -18.995399 -18.686600
rhumerus -49.650398 -15.545500 296.825012
lowerneck -0.937934 5.325570 6.221040
lhand -13.752700 -339.476990
ltibia 33.478401
head 0.965801 3.619390 -4.621020
rwrist 12.823100
lfingers 7.125020
rtoes 9.242510
lowerback -3.728750 -3.831820 8.747550
rfingers 7.125020
lclavicle 0.000000 0.000000
upperneck 0.285118 7.240570 -10.935900
rfemur -12.009700 11.585700 17.105499
thorax -0.710779 -2.761320 -5.403370
rclavicle 0.000000 0.000000
rtibia 28.767599
lfoot 4.177770 28.309401
lhumerus -39.517200 0.155829 79.342400
rthumb 7.309630 311.459991
root 4.795280 19.268700 18.934999 719.927002 98.529900 709.544006
ltoes 25.736200
lfemur -30.511499 -15.842700 5.235100
161
upperback -2.413310 -3.800560 -0.195311
rfoot -33.407902 -33.905800
lradius 31.076099
lthumb 12.741700 -310.619995
rradius 30.071501
lwrist -14.113200
rhand -21.162800 -18.968100
rhumerus -49.694599 -14.220900 292.683014
lowerneck -1.809410 4.086980 4.559980
lhand -13.364700 -340.210999
ltibia 35.487598
head 0.998639 2.716080 -2.876250
rwrist 10.647400
lfingers 7.125020
rtoes 5.494120
lowerback -3.549510 -2.720210 8.253330
rfingers 7.125020
lclavicle 0.000000 0.000000
upperneck 1.078870 5.490590 -6.805500
rfemur -5.543920 11.635600 18.888399
thorax -1.071950 -1.999340 -4.901250
rclavicle 0.000000 0.000000
rtibia 26.412600
lfoot -19.578100 36.068600
lhumerus -44.920601 3.613020 73.215500
rthumb 5.217190 311.115997
root 5.458990 19.014500 17.740900 731.161011 107.644997 721.219971
ltoes 29.791800
lfemur -34.586601 -8.478430 -2.339610
